<?xml version="1.0" standalone="no"?>
<!DOCTYPE svg PUBLIC "-//W3C//DTD SVG 1.1//EN" "http://www.w3.org/Graphics/SVG/1.1/DTD/svg11.dtd">
<svg width="100%" height="100%" viewBox="0 0 596 842" version="1.1" xmlns="http://www.w3.org/2000/svg" xmlns:xlink="http://www.w3.org/1999/xlink" xml:space="preserve" style="fill-rule:evenodd;clip-rule:evenodd;stroke-linejoin:round;stroke-miterlimit:1.41421;">
    <path d="M334.62,406.051C333.68,408.012 333.209,410.247 333.209,412.756C333.287,413.384 333.326,413.894 333.326,414.286C334.032,417.559 334.738,419.579 335.444,420.344C336.483,421.834 338.05,423.373 340.149,424.961C342.816,427.805 344.149,430.707 344.149,433.668C344.149,435.922 343.795,437.756 343.089,439.166C343.089,440.246 341.795,441.275 339.207,442.254C338.344,442.334 337.913,442.481 337.913,442.697L337.913,443.019C338.05,443.314 338.325,443.46 338.737,443.46C339.148,443.46 339.697,443.274 340.383,442.901C342.305,442.196 343.481,441.352 343.912,440.372C344.853,438.294 345.324,436.167 345.324,433.989C345.324,431.245 344.343,428.46 342.383,425.637C338.539,422.166 336.422,420.039 336.03,419.255C334.932,416.353 334.383,414.255 334.383,412.961C334.383,410.863 334.696,408.961 335.324,407.256C336.069,405.707 337.481,404.932 339.559,404.932L340.736,404.932C341.128,404.659 341.324,404.472 341.324,404.373L341.324,404.167L340.971,403.726C337.816,403.727 335.698,404.502 334.62,406.051M325.106,405.375L320.282,405.375C319.674,405.375 318.616,405.444 317.106,405.581C317.027,405.581 316.713,405.513 316.165,405.375C315.852,405.532 315.694,405.669 315.694,405.787C315.694,406.14 315.812,406.444 316.047,406.699L319.813,406.375L320.166,406.375L320.401,406.493C320.558,408.532 320.635,410.797 320.635,413.287C321.341,428.541 321.695,437.01 321.695,438.698C321.616,439.305 321.577,439.677 321.577,439.815C321.813,440.088 321.969,440.225 322.048,440.225L322.519,440.225C322.636,440.225 322.754,440.088 322.872,439.815L322.755,439.11C322.755,439.03 322.794,438.932 322.872,438.815C322.872,438.737 322.833,438.627 322.755,438.491C322.755,433.354 322.402,424.854 321.696,412.992C321.696,412.933 321.735,412.659 321.814,412.169L321.578,406.787C321.696,406.513 321.814,406.375 321.932,406.375L325.226,406.375C327.421,406.375 328.52,406.209 328.52,405.875L328.52,405.581L328.166,405.169C327.125,405.306 326.106,405.375 325.106,405.375M308.032,400.317C308.032,402.356 307.993,405.257 307.915,409.021L307.797,409.256C307.875,409.394 307.915,409.55 307.915,409.727L307.915,415.138C307.915,416.374 307.954,418.413 308.032,421.256C304.386,421.334 302.307,421.452 301.798,421.61L301.68,421.374L301.68,419.257C301.915,408.944 302.034,403.062 302.034,401.611C302.034,401.218 301.838,400.905 301.446,400.67L301.21,400.67L300.74,401.024C300.74,401.258 300.779,401.534 300.857,401.846C300.857,404.239 300.74,409.807 300.504,418.551C300.504,420.041 300.621,422.708 300.857,426.55L300.857,428.316C300.857,431.099 300.818,433.453 300.74,435.375C300.818,436.492 300.857,438.65 300.857,441.846L300.857,442.905C301.052,443.218 301.21,443.376 301.328,443.376C301.544,443.376 301.779,443.298 302.034,443.14C302.034,439.298 301.994,436.71 301.916,435.376C301.994,433.003 302.034,430.259 302.034,427.142C302.034,425.691 301.955,424.24 301.799,422.788C302.27,422.632 304.347,422.515 308.033,422.434C308.19,424.573 308.308,431.002 308.386,441.727C308.309,442.217 308.27,442.885 308.27,443.727L308.74,444.081L309.093,444.081L309.447,443.847C309.447,442.689 309.486,441.906 309.565,441.493C309.486,432.376 309.369,425.985 309.211,422.317C309.289,422.317 309.368,422.2 309.446,421.965C309.446,421.828 309.368,421.631 309.211,421.376L308.977,409.142C309.132,407.103 309.211,404.241 309.211,400.554C309.211,400.32 309.054,400.123 308.74,399.966L308.505,399.966L308.032,400.317ZM284.048,404.993C281.46,406.111 280.166,413.13 280.166,426.051C280.166,432.893 281.028,437.951 282.754,441.225C283.754,442.422 284.892,443.166 286.166,443.461L286.636,443.461C287.814,443.225 288.402,443.029 288.402,442.873C289.675,442.873 290.578,439.775 291.107,433.578C291.107,433.5 291.068,433.383 290.99,433.226C291.068,432.421 291.107,431.794 291.107,431.343L291.107,428.402C291.107,427.226 290.95,426.482 290.636,426.168C287.519,425.893 285.832,425.658 285.577,425.461L285.224,425.461C284.989,425.58 284.871,425.697 284.871,425.815L284.871,425.932L284.988,426.52C284.988,426.756 286.557,426.993 289.694,427.227C289.694,427.149 289.733,427.11 289.811,427.11L289.928,427.698L289.928,433.462C289.418,438.167 289.027,440.521 288.752,440.521C288.752,441.423 288.046,442.011 286.634,442.287L286.164,442.287C284.811,441.738 283.909,440.992 283.458,440.051C282.046,436.856 281.34,432.229 281.34,426.17C281.34,413.328 282.518,406.623 284.87,406.053L285.34,406.053C285.928,406.053 286.478,406.17 286.987,406.407C287.85,406.956 288.359,407.229 288.516,407.229C288.829,407.034 288.987,406.876 288.987,406.759L288.987,406.523C288.124,405.425 286.948,404.877 285.458,404.877L285.223,404.877L284.048,404.993ZM269.27,403.933C269.504,405.405 269.623,407.051 269.623,408.874L269.623,412.168C269.152,417.305 268.917,426.677 268.917,440.285C268.917,442.402 269.074,443.461 269.388,443.461L269.859,443.461C270.075,443.461 270.231,443.186 270.33,442.637C270.173,442.01 270.094,441.619 270.094,441.461L270.094,433.815C270.094,431.403 270.133,428.149 270.212,424.051C270.133,423.737 270.094,423.422 270.094,423.11C270.566,416.718 270.8,412.757 270.8,411.228L270.8,409.7C270.8,405.543 270.526,403.465 269.978,403.465L269.743,403.465C269.426,403.66 269.27,403.817 269.27,403.933M251.961,401.699C252.627,401.699 253.608,402.287 254.902,403.464C256.627,406.66 257.49,409.287 257.49,411.346L257.49,412.992C257.49,417.58 255.96,420.914 252.902,422.992C252.508,414.521 252.078,407.423 251.608,401.699L251.961,401.699ZM250.196,400.405C250.823,405.248 251.333,413.051 251.725,423.815C251.49,423.815 251.293,423.973 251.136,424.286L251.136,424.64C251.274,424.954 251.508,425.111 251.842,425.111L251.842,432.17C251.842,433.248 251.92,435.443 252.077,438.758L251.96,439.58C252.234,439.894 252.431,440.051 252.548,440.051C252.861,440.051 253.097,439.895 253.254,439.58L253.254,439.346C253.254,438.836 253.175,436.639 253.019,432.758L253.019,428.287C253.019,427.463 252.98,426.209 252.902,424.521L253.019,424.521C253.959,424.521 255.058,425.111 256.313,426.287C258.117,429.385 259.019,432.404 259.019,435.346L259.019,439.58C259.019,440.365 259.058,441.541 259.136,443.109L259.607,443.463L259.96,443.463L260.314,443.227C260.235,441.934 260.196,440.954 260.196,440.288L260.196,435.817C259.647,428.485 257.647,424.407 254.197,423.583C257.176,421.269 258.667,417.543 258.667,412.407L258.667,411.23C258.667,409.681 258,407.29 256.667,404.054C255.727,402.466 254.51,401.368 253.021,400.76C251.825,400.564 251.119,400.329 250.904,400.054L250.669,400.054L250.196,400.405Z" style="fill:white;fill-rule:nonzero;"/>
</svg>
