<?xml version="1.0" encoding="UTF-8" standalone="no"?>
<!DOCTYPE svg PUBLIC "-//W3C//DTD SVG 1.1//EN" "http://www.w3.org/Graphics/SVG/1.1/DTD/svg11.dtd">
<svg version="1.1" xmlns="http://www.w3.org/2000/svg" xmlns:xlink="http://www.w3.org/1999/xlink" preserveAspectRatio="xMidYMid meet" viewBox="0 0 640 640" width="640" height="640"><defs><path d="M640 320C640 496.61 496.61 640 320 640C143.39 640 0 496.61 0 320C0 143.39 143.39 0 320 0C496.61 0 640 143.39 640 320Z" id="f1NlQr0IDB"></path><path d="M217.48 494.85C209.67 502.66 197.01 502.66 189.2 494.85C177.56 483.21 156.79 462.44 145.15 450.8C137.34 442.99 137.34 430.33 145.15 422.52C203.45 364.21 364.21 203.45 422.52 145.15C430.33 137.34 442.99 137.34 450.8 145.15C462.44 156.79 483.21 177.56 494.85 189.2C502.66 197.01 502.66 209.67 494.85 217.48C436.55 275.79 275.79 436.55 217.48 494.85Z" id="h4MpWH7pY"></path><path d="M494.85 422.52C502.66 430.33 502.66 442.99 494.85 450.8C483.21 462.44 462.44 483.21 450.8 494.85C442.99 502.66 430.33 502.66 422.52 494.85C364.21 436.55 203.45 275.79 145.15 217.48C137.34 209.67 137.34 197.01 145.15 189.2C156.79 177.56 177.56 156.79 189.2 145.15C197.01 137.34 209.67 137.34 217.48 145.15C275.79 203.45 436.55 364.21 494.85 422.52Z" id="b3LfUDwSrW"></path></defs><g><g><g><use xlink:href="#f1NlQr0IDB" opacity="1" fill="#fad3d4" fill-opacity="1"></use></g><g><use xlink:href="#h4MpWH7pY" opacity="1" fill="#26262a" fill-opacity="1"></use></g><g><use xlink:href="#b3LfUDwSrW" opacity="1" fill="#26262a" fill-opacity="1"></use></g></g></g></svg>
