<?xml version="1.0" encoding="UTF-8" standalone="no"?>
<!DOCTYPE svg PUBLIC "-//W3C//DTD SVG 1.1//EN" "http://www.w3.org/Graphics/SVG/1.1/DTD/svg11.dtd">
<svg version="1.1" xmlns="http://www.w3.org/2000/svg" xmlns:xlink="http://www.w3.org/1999/xlink" preserveAspectRatio="xMidYMid meet" viewBox="0 0 640 640" width="640" height="640"><defs><path d="M640 320C640 496.61 496.61 640 320 640C143.39 640 0 496.61 0 320C0 143.39 143.39 0 320 0C496.61 0 640 143.39 640 320Z" id="at6iQkHfr"></path><path d="M306.67 422.52C314.48 430.33 314.48 442.99 306.67 450.8C295.03 462.44 274.26 483.21 262.62 494.85C254.81 502.66 242.14 502.66 234.33 494.85C204.48 464.99 129.04 389.56 99.18 359.7C91.37 351.89 91.37 339.23 99.18 331.42C110.82 319.78 131.6 299 143.24 287.37C151.05 279.56 163.71 279.56 171.52 287.37C201.38 317.22 276.81 392.66 306.67 422.52Z" id="bJDRALKiO"></path><path d="M263.45 494.85C255.64 502.66 242.97 502.66 235.16 494.85C223.53 483.21 202.75 462.44 191.11 450.8C183.3 442.99 183.3 430.33 191.11 422.52C249.41 364.21 410.18 203.45 468.48 145.15C476.29 137.34 488.95 137.34 496.76 145.15C508.4 156.79 529.18 177.56 540.82 189.2C548.63 197.01 548.63 209.67 540.82 217.48C482.51 275.79 321.75 436.55 263.45 494.85Z" id="deMkivsDI"></path></defs><g><g><g><use xlink:href="#at6iQkHfr" opacity="1" fill="#fbe2bc" fill-opacity="1"></use></g><g><use xlink:href="#bJDRALKiO" opacity="1" fill="#26262a" fill-opacity="1"></use></g><g><use xlink:href="#deMkivsDI" opacity="1" fill="#26262a" fill-opacity="1"></use></g></g></g></svg>
