<svg xmlns="http://www.w3.org/2000/svg" xmlns:xlink="http://www.w3.org/1999/xlink" width="640" height="640"><defs><path d="M640 320c0 176.61-143.39 320-320 320S0 496.61 0 320 143.39 0 320 0s320 143.39 320 320z" id="a"/><path d="M306.67 422.52c7.81 7.81 7.81 20.47 0 28.28l-44.05 44.05c-7.81 7.81-20.48 7.81-28.29 0-29.85-29.86-105.29-105.29-135.15-135.15-7.81-7.81-7.81-20.47 0-28.28 11.64-11.64 32.42-32.42 44.06-44.05 7.81-7.81 20.47-7.81 28.28 0 29.86 29.85 105.29 105.29 135.15 135.15z" id="b"/><path d="M263.45 494.85c-7.81 7.81-20.48 7.81-28.29 0-11.63-11.64-32.41-32.41-44.05-44.05-7.81-7.81-7.81-20.47 0-28.28 58.3-58.31 219.07-219.07 277.37-277.37 7.81-7.81 20.47-7.81 28.28 0 11.64 11.64 32.42 32.41 44.06 44.05 7.81 7.81 7.81 20.47 0 28.28L263.45 494.85z" id="c"/></defs><use xlink:href="#a" fill="#dde5d5"/><use xlink:href="#b" fill="#26262a"/><use xlink:href="#c" fill="#26262a"/></svg>
