<svg xmlns="http://www.w3.org/2000/svg" xmlns:xlink="http://www.w3.org/1999/xlink" width="640" height="640"><defs><path d="M640 320c0 176.61-143.39 320-320 320S0 496.61 0 320 143.39 0 320 0s320 143.39 320 320z" id="a"/><path d="M217.48 494.85c-7.81 7.81-20.47 7.81-28.28 0l-44.05-44.05c-7.81-7.81-7.81-20.47 0-28.28 58.3-58.31 219.06-219.07 277.37-277.37 7.81-7.81 20.47-7.81 28.28 0l44.05 44.05c7.81 7.81 7.81 20.47 0 28.28-58.3 58.31-219.06 219.07-277.37 277.37z" id="b"/><path d="M494.85 422.52c7.81 7.81 7.81 20.47 0 28.28l-44.05 44.05c-7.81 7.81-20.47 7.81-28.28 0-58.31-58.3-219.07-219.06-277.37-277.37-7.81-7.81-7.81-20.47 0-28.28l44.05-44.05c7.81-7.81 20.47-7.81 28.28 0 58.31 58.3 219.07 219.06 277.37 277.37z" id="c"/></defs><use xlink:href="#a" fill="#fad3d4"/><use xlink:href="#b" fill="#26262a"/><use xlink:href="#c" fill="#26262a"/></svg>
